<?xml version="1.0" encoding="utf-8"?>
<!-- Generator: Adobe Illustrator 24.1.3, SVG Export Plug-In . SVG Version: 6.00 Build 0)  -->
<svg version="1.1" id="Layer_1" xmlns="http://www.w3.org/2000/svg" xmlns:xlink="http://www.w3.org/1999/xlink" x="0px" y="0px"
	 viewBox="0 0 106 67.4" style="enable-background:new 0 0 106 67.4;" xml:space="preserve">
<style type="text/css">
	.st0{fill:url(#SVGID_1_);}
	.st1{fill:url(#SVGID_2_);}
	.st2{fill:url(#SVGID_3_);}
	.st3{fill:url(#SVGID_4_);}
</style>
<g>
	
		<linearGradient id="SVGID_1_" gradientUnits="userSpaceOnUse" x1="20.2469" y1="68.6756" x2="20.2469" y2="1.2756" gradientTransform="matrix(1 0 0 -1 0 68.6756)">
		<stop  offset="0" style="stop-color:#FF9A8B"/>
		<stop  offset="0.55" style="stop-color:#FF6A88"/>
		<stop  offset="1" style="stop-color:#FF99AC"/>
	</linearGradient>
	<path class="st0" d="M33.8,67.4C19.2,38.2,14.7,29.4,0,0c5.4,0,9.7,0,14.2,0c1,0,2.4,1.5,3,2.6C28.1,24.2,29.4,26.3,40,48.1
		c1,2,0.3,5.2-0.5,7.5C38.2,59.3,36.1,62.8,33.8,67.4z"/>
	
		<linearGradient id="SVGID_2_" gradientUnits="userSpaceOnUse" x1="56.3" y1="68.6756" x2="56.3" y2="1.2756" gradientTransform="matrix(1 0 0 -1 0 68.6756)">
		<stop  offset="0" style="stop-color:#FF9A8B"/>
		<stop  offset="0.55" style="stop-color:#FF6A88"/>
		<stop  offset="1" style="stop-color:#FF99AC"/>
	</linearGradient>
	<path class="st1" d="M56.4,67.4h-7.3V0h7.3c3.9,0,7.1,3.2,7.1,7.1v53.2C63.5,64.2,60.4,67.4,56.4,67.4z"/>
	
		<linearGradient id="SVGID_3_" gradientUnits="userSpaceOnUse" x1="98.8" y1="68.6756" x2="98.8" y2="34.9756" gradientTransform="matrix(1 0 0 -1 0 68.6756)">
		<stop  offset="0" style="stop-color:#FF9A8B"/>
		<stop  offset="0.55" style="stop-color:#FF6A88"/>
		<stop  offset="1" style="stop-color:#FF99AC"/>
	</linearGradient>
	<path class="st2" d="M98.9,33.7h-7.3V0h7.3c3.9,0,7.1,3.2,7.1,7.1v19.6C106,30.5,102.8,33.7,98.9,33.7z"/>
	
		<linearGradient id="SVGID_4_" gradientUnits="userSpaceOnUse" x1="77.65" y1="68.642" x2="77.65" y2="58.4178" gradientTransform="matrix(1 0 0 -1 0 68.6756)">
		<stop  offset="0" style="stop-color:#FF9A8B"/>
		<stop  offset="0.55" style="stop-color:#FF6A88"/>
		<stop  offset="1" style="stop-color:#FF99AC"/>
	</linearGradient>
	<polygon class="st3" points="69.8,0 77.7,10.3 85.5,0 	"/>
</g>
</svg>
